# xmcd
#
# Track frame offsets:
#  150
#  18934
#  32178
#  44422
#  62358
#  76682
#  93354
#  113078
#  125446
#  135166
#  151530
#  164722
#  174926
#  189158
#  208102
#
# Disc length: 2962 seconds
#
# Revision: 0
# Processed by: cddbd v1.5.1PL2 Copyright (c) Steve Scherf et al.
# Submitted via: Collectorz.com Music Collector 6.9
#
DISCID=ad0b900f
DTITLE=Frisco - To Please You
DYEAR=1900
DGENRE=
TTITLE0=Christina
TTITLE1=Sing Me Back Home
TTITLE2=You're Sixteen
TTITLE3=A Bushman
TTITLE4=Part Of Me
TTITLE5=Tipperary
TTITLE6=Look At Us
TTITLE7=Bad Nes
TTITLE8=Tell Him
TTITLE9=Long Black Limousine
TTITLE10=Fly Like A Bird
TTITLE11=Singing The Blues
TTITLE12=Crying Time
TTITLE13=Dance The Night Away
TTITLE14=Cavatina
EXTD=
EXTT0=
EXTT1=
EXTT2=
EXTT3=
EXTT4=
EXTT5=
EXTT6=
EXTT7=
EXTT8=
EXTT9=
EXTT10=
EXTT11=
EXTT12=
EXTT13=
EXTT14=
PLAYORDER=
